<?xml version="1.0"?><svg xmlns="http://www.w3.org/2000/svg" width="800" height="800" viewBox="0 0 800 800" fill="none"><path d="M470.411 203.583C470.411 195.916 470.404 188.249 470.415 180.583C470.42 176.787 469.151 173.642 465.804 171.595C464.414 170.745 462.875 170.365 461.211 170.369C451.411 170.397 441.611 170.383 431.811 170.383C347.811 170.383 263.811 170.408 179.811 170.313C175.333 170.308 170.337 174.561 170.341 179.783C170.432 300.316 170.411 420.849 170.411 541.383C170.411 552.716 170.634 564.056 170.318 575.38C170.159 581.117 174.29 585.907 180.812 585.817C190.41 585.684 200.011 585.783 209.611 585.783" stroke="black" stroke-width="11" stroke-linecap="round" stroke-linejoin="round"/><path d="M519.82 420.184C519.811 351.65 519.816 283.117 519.804 214.584C519.803 208.252 515.616 204.412 509.611 204.394L220.812 204.368C215.706 204.301 212.251 207.107 210.826 211.189C210.403 212.401 210.41 213.702 210.41 214.984L210.39 618.783C210.283 623.07 212.121 626.149 215.817 628.173C216.982 628.811 218.278 628.99 219.611 628.99C316.545 628.983 413.478 628.982 510.411 628.988C515.519 628.988 519.661 625.363 519.765 619.583C519.936 610.119 519.821 600.65 519.794 591.184" stroke="black" stroke-width="11" stroke-linecap="round" stroke-linejoin="round"/><circle cx="506.251" cy="506.252" r="82.8125" stroke="black" stroke-width="11"/><path d="M418.611 592.183C365.611 592.183 312.611 592.183 259.611 592.183" stroke="black" stroke-width="11" stroke-linecap="round" stroke-linejoin="round"/><path d="M579.01 552.784C593.811 567.583 608.599 582.395 623.415 597.178C631.249 604.995 630.75 617.067 623.39 623.961C616.037 630.848 604.941 630.882 597.856 623.937C582.641 609.021 567.674 593.853 552.621 578.773" stroke="black" stroke-width="11" stroke-linecap="round" stroke-linejoin="round"/><path d="M426.811 546C382.944 545.979 339.22 545.888 295.354 545.884" stroke="black" stroke-width="11" stroke-linecap="round" stroke-linejoin="round"/><path d="M462.211 253.584C457.973 254.845 454.548 257.613 450.826 259.809C434.992 269.15 419.2 278.564 403.415 287.99C392.195 294.69 381.011 301.45 369.811 308.182C369.683 308.259 369.543 308.314 369.412 308.384C363.396 311.586 365.164 312.041 360.213 307.182C352.474 299.588 344.728 292 337.024 284.371C335.208 282.574 334.469 282.932 332.821 284.196C311.54 300.511 290.278 316.85 269.012 333.184C266.41 335.182 263.811 337.184 261.211 339.184" stroke="black" stroke-width="11" stroke-linecap="round" stroke-linejoin="round"/><path d="M475.811 384.385H418.848" stroke="black" stroke-width="11" stroke-linecap="round" stroke-linejoin="round"/><path d="M541.679 485.939C527.94 499.667 514.208 513.402 500.475 527.135C499.941 527.668 499.407 528.201 498.875 528.735C498.074 529.539 497.275 529.539 496.475 528.735C496.275 528.535 496.076 528.334 495.875 528.135C487.875 520.268 479.874 512.403 471.876 504.533" stroke="black" stroke-width="11" stroke-linecap="round" stroke-linejoin="round"/><path d="M437.312 244.133L462.502 253.127" stroke="black" stroke-width="11" stroke-linecap="round" stroke-linejoin="round"/><path d="M462.514 253.127C462.514 253.127 461.301 259.03 460.757 261.379C459.201 268.109 457.805 274.872 456.252 281.601" stroke="black" stroke-width="11" stroke-linecap="round" stroke-linejoin="round"/><path d="M475.811 347.582H449.811" stroke="black" stroke-width="11" stroke-linecap="round" stroke-linejoin="round"/><path d="M272.211 546.083H259.611" stroke="black" stroke-width="11" stroke-linecap="round" stroke-linejoin="round"/><path d="M304.211 402.383C302.139 403.113 299.931 403.139 297.799 403.515C290.65 404.776 284.135 407.573 278.243 411.63C267.504 419.025 260.032 428.944 256.419 441.586C254.297 449.007 253.905 456.515 254.965 464.19C256.431 474.804 260.877 483.911 267.788 492.002C275.786 501.365 285.988 506.991 297.831 509.485C304.939 510.983 312.19 510.787 319.423 509.242C329.617 507.065 338.341 502.407 345.832 495.206C350.345 490.867 354.023 485.94 356.778 480.367C359.855 474.147 361.718 467.538 362.207 460.583C362.503 456.384 362.488 456.383 358.211 456.383C342.677 456.383 327.144 456.384 311.611 456.383C308.658 456.383 308.411 456.132 308.411 453.183C308.411 437.583 308.411 421.983 308.411 406.383C308.411 402.383 308.411 402.383 304.411 402.383" stroke="black" stroke-width="11" stroke-linecap="round" stroke-linejoin="round"/><path d="M332.611 371.982C331.465 372.159 330.983 372.864 331.01 373.982C331.02 374.382 331.011 374.782 331.011 375.182C331.011 393.582 331.011 411.982 331.011 430.382C331.011 433.609 331.185 433.782 334.411 433.782C352.945 433.782 371.478 433.734 390.011 433.831C393.001 433.847 393.218 432.384 392.831 430.378C392.373 428 392.258 425.573 391.859 423.174C391.147 418.907 389.958 414.782 388.376 410.796C385.14 402.643 380.358 395.442 373.991 389.404C365.117 380.989 354.752 375.354 342.614 373.166C339.364 372.58 336.124 372.008 332.811 371.982" stroke="black" stroke-width="11" stroke-linecap="round" stroke-linejoin="round"/></svg>