<svg width="100" height="100" fill="none" xmlns="http://www.w3.org/2000/svg"><rect width="100" height="100" rx="24" fill="#F52D3A"/><path d="M60.631 42.95v.084a18.169 18.169 0 0111.053 5.232C74.975 51.556 77 56.028 77 61.006c0 4.978-2.025 9.535-5.316 12.825-3.29 3.206-7.762 5.231-12.74 5.231H41.056c-4.978 0-9.534-2.025-12.825-5.23C25.025 70.54 23 65.983 23 61.005h9.788c0 2.278.928 4.303 2.446 5.822 1.52 1.519 3.544 2.447 5.822 2.447h17.888c2.194 0 4.303-.928 5.737-2.447 1.519-1.519 2.447-3.544 2.447-5.822 0-2.194-.928-4.303-2.447-5.737-1.434-1.519-3.543-2.447-5.737-2.447H39.369c-4.556 0-8.607-1.856-11.56-4.81C24.772 45.06 23 40.925 23 36.454c0-4.556 1.772-8.606 4.81-11.56C30.762 21.857 34.812 20 39.368 20H60.63a16.13 16.13 0 0111.56 4.894c2.954 2.953 4.81 7.003 4.81 11.56h-9.872c0-1.773-.76-3.46-1.94-4.642-1.182-1.18-2.785-1.94-4.557-1.94H39.37c-1.772 0-3.46.76-4.64 1.94-1.182 1.182-1.941 2.87-1.941 4.641 0 1.772.759 3.375 1.94 4.64 1.181 1.182 2.869 1.857 4.64 1.857h21.263z" fill="#fff"/></svg>