<svg width="46" height="46" fill="none" xmlns="http://www.w3.org/2000/svg"><path d="M38.276 19.167H7.609V34.5c0 5.75 1.917 7.667 7.667 7.667h15.333c5.75 0 7.667-1.917 7.667-7.667V19.167zm2.932-5.751v1.917c0 2.108-1.015 3.833-3.833 3.833H8.625c-2.932 0-3.833-1.725-3.833-3.833v-1.917c0-2.108.9-3.833 3.833-3.833h28.75c2.818 0 3.833 1.725 3.833 3.833zM22.31 9.583H11.73a1.795 1.795 0 01.057-2.492L14.51 4.37a1.84 1.84 0 012.588 0l5.213 5.213zm11.94 0H23.67l5.214-5.213a1.84 1.84 0 012.588 0l2.721 2.721c.69.69.71 1.783.058 2.492z" stroke="#027FFF" stroke-width="2.5" stroke-miterlimit="10" stroke-linecap="round" stroke-linejoin="round"/><path d="M17.135 19.167v9.852c0 1.533 1.687 2.434 2.97 1.61l1.802-1.189a1.915 1.915 0 012.109 0l1.706 1.15c1.265.844 2.97-.057 2.97-1.59v-9.833H17.136z" stroke="#027FFF" stroke-width="2.5" stroke-miterlimit="10" stroke-linecap="round" stroke-linejoin="round"/></svg>