<svg width="32" height="32" fill="none" xmlns="http://www.w3.org/2000/svg"><path d="M10.667 3.776A13.289 13.289 0 0116 2.666c1.895 0 3.698.396 5.33 1.109m6.894 17.558a13.288 13.288 0 001.109-5.462M18.922 6.265l1.67-1.67.739-.82m4.273 9.17l1.67-1.67.848-.835M24.768 7.1l.498-.498.106-.086m-9.788 3.088l-.21.21m6.887 6.47l-.239.24m-6.177-13.86L13.078 5.43m8.35 5.01l-1.67 1.67m6.682 6.68l2.505-2.505.388-.414m-18.76-1.256l-1.67 1.67m8.35 5.01l-1.67 1.67M8.07 10.44l.834-.834.23-.138m5.613 7.651l.835-.834.205-.165m5.64 7.68l.834-.835.208-.163M5.563 19.624l-1.67 1.67m8.35 5.01l-1.67 1.67M4.727 13.78l-1.67 1.67m8.352 5.01l-1.67 1.67m8.35 5.01l-1.67 1.67M2.333 2.665l4.07 4.07M29 29.333l-3.73-3.73M21.33 3.775a13.357 13.357 0 014.042 2.74m0 0a13.365 13.365 0 012.75 3.925m0 0a13.28 13.28 0 011.21 5.431m-13.545.25L9.135 9.467m6.652 6.652l6.682 6.682M9.135 9.468L6.403 6.736m0 0l-.084.095A13.288 13.288 0 002.667 16c0 7.363 5.97 13.333 13.333 13.333 3.494 0 6.673-1.344 9.05-3.542l.22-.188m-2.8-2.801l2.8 2.801" stroke="#fff" stroke-width="2" stroke-linecap="round" stroke-linejoin="round"/></svg>