<svg width="32" height="32" fill="none" xmlns="http://www.w3.org/2000/svg"><path d="M18.654 26.18l-8.86-8.847m8.86 8.847A5.333 5.333 0 0028 22.666v-14.4c0-1.493 0-2.24-.29-2.81a2.667 2.667 0 00-1.166-1.165C25.974 4 25.227 4 23.734 4H21.6c-1.494 0-2.24 0-2.81.29a2.67 2.67 0 00-1.166 1.166c-.29.57-.29 1.317-.29 2.81v1.515m1.32 16.4a5.313 5.313 0 01-1.32-3.514V9.78m0 0l-1.441-1.43c-1.056-1.055-1.584-1.583-2.193-1.78a2.666 2.666 0 00-1.648 0c-.61.198-1.137.726-2.193 1.782L8.352 9.858c-1.057 1.057-1.585 1.585-1.783 2.194a2.667 2.667 0 000 1.649c.199.609.727 1.137 1.784 2.193l1.441 1.44M22.657 28H8.267c-1.494 0-2.24 0-2.811-.29a2.667 2.667 0 01-1.165-1.166C4 25.974 4 25.227 4 23.734V21.6c0-1.494 0-2.24.29-2.81a2.67 2.67 0 011.166-1.166c.57-.29 1.317-.29 2.81-.29h1.528m12.873 5.333l.011.006" stroke="#fff" stroke-width="2" stroke-linecap="round" stroke-linejoin="round"/></svg>