<svg width="32" height="32" fill="none" xmlns="http://www.w3.org/2000/svg"><path d="M8.469 11.65l-.767-.643-.007.009.774.633zM16 2.666l.767-.642a1 1 0 00-1.533 0l.766.642zm7.529 8.98l.773-.635-.007-.008-.766.643zM17.474 30.23a1 1 0 00-.281-1.98l.281 1.98zm7.455-12.78a1 1 0 101.986-.233l-1.986.234zm-1.555 4.51a1 1 0 00-1.414 1.414l1.414-1.414zm5.252 8.08a1 1 0 001.414-1.413l-1.414 1.414zm1.414-6.666a1 1 0 10-1.414-1.414l1.414 1.414zm-8.08 5.253a1 1 0 101.414 1.414l-1.414-1.414zm-5.96.707v-1c-4.91 0-9-4.267-9-9.667H5c0 6.381 4.865 11.667 11 11.667v-1zM8.469 11.65l.766.642 7.532-8.982L16 2.667l-.766-.643-7.532 8.983.767.643zM16 2.666l-.766.642 7.529 8.98.766-.643.766-.642-7.528-8.98-.767.643zm-10 16h1c0-2.435.85-4.686 2.242-6.384l-.773-.633-.774-.634C6.012 13.069 5 15.768 5 18.667h1zM17.333 29.24l-.14-.99a8.47 8.47 0 01-1.193.084v2c.5 0 .991-.036 1.474-.104l-.14-.99zm6.196-17.593l-.773.634a10.013 10.013 0 012.173 5.17l.993-.117.993-.117a12.014 12.014 0 00-2.613-6.205l-.773.634zm-.862 11.02l-.707.707 3.333 3.333L26 26l.707-.707-3.333-3.333-.707.707zM26 26l-.707.707 3.333 3.334.707-.707.707-.707-3.333-3.334L26 26zm3.333-3.333l-.707-.707-3.333 3.333L26 26l.707.707 3.333-3.333-.707-.707zM26 26l-.707-.707-3.333 3.334.707.707.707.707 3.333-3.334L26 26z" fill="#fff"/></svg>