<svg width="30" height="30" fill="none" xmlns="http://www.w3.org/2000/svg"><path d="M24.962 12.5h-20v10c0 3.75 1.25 5 5 5h10c3.75 0 5-1.25 5-5v-10zm1.913-3.75V10c0 1.375-.663 2.5-2.5 2.5H5.625c-1.913 0-2.5-1.125-2.5-2.5V8.75c0-1.375.587-2.5 2.5-2.5h18.75c1.837 0 2.5 1.125 2.5 2.5zM14.55 6.25h-6.9a1.17 1.17 0 01.037-1.625L9.462 2.85a1.2 1.2 0 011.688 0l3.4 3.4zm7.787 0h-6.9l3.4-3.4a1.2 1.2 0 011.688 0L22.3 4.625c.45.45.462 1.162.037 1.625z" stroke="#027FFF" stroke-width="2" stroke-miterlimit="10" stroke-linecap="round" stroke-linejoin="round"/><path d="M11.175 12.5v6.425c0 1 1.1 1.587 1.937 1.05l1.175-.775a1.249 1.249 0 011.375 0l1.113.75a1.246 1.246 0 001.937-1.037V12.5h-7.537z" stroke="#027FFF" stroke-width="2" stroke-miterlimit="10" stroke-linecap="round" stroke-linejoin="round"/></svg>