<svg width="201" height="19" fill="none" xmlns="http://www.w3.org/2000/svg"><g clip-path="url(#clip0_1_34)"><path d="M12.062 7.356v.027a5.823 5.823 0 013.543 1.677 5.744 5.744 0 011.703 4.084 5.807 5.807 0 01-1.703 4.11 5.834 5.834 0 01-4.084 1.677H5.787a5.899 5.899 0 01-4.11-1.677A5.899 5.899 0 010 13.144h3.137c0 .73.298 1.379.784 1.866a2.616 2.616 0 001.866.784h5.734c.703 0 1.38-.298 1.839-.784a2.616 2.616 0 00.784-1.866c0-.704-.297-1.38-.784-1.84a2.554 2.554 0 00-1.84-.784H5.248a5.21 5.21 0 01-3.706-1.54A5.146 5.146 0 010 5.274c0-1.46.568-2.759 1.542-3.705A5.124 5.124 0 015.247 0h6.815a5.17 5.17 0 013.705 1.569 5.21 5.21 0 011.541 3.705h-3.164a2.13 2.13 0 00-.622-1.488 2.067 2.067 0 00-1.46-.622H5.247a2.13 2.13 0 00-1.488.622 2.13 2.13 0 00-.622 1.488c0 .568.244 1.081.622 1.487.379.379.92.595 1.488.595h6.815zM33.266 0h3.408v18.931H33.51V5.787l-3.949 6.735h-2.732l-3.975-6.735v13.144h-3.137V0h3.407l5.058 8.627L33.266 0zm9.068 18.931h-3.138v-6.896L41.414 0h10.412l2.218 12.035.027.243v6.653h-3.164v-5.057h-8.573v5.057zm6.869-15.767h-5.166l-1.379 7.546h7.924l-1.38-7.546zM56.586 0h10.25c1.73 0 3.326.73 4.49 1.893a6.358 6.358 0 011.865 4.49c0 1.73-.73 3.326-1.866 4.489a6.412 6.412 0 01-2.299 1.46l4.165 6.626h-3.705l-3.894-6.22h-5.869v6.22h-3.137V0zm10.25 3.164h-7.113v6.41h7.113c.865 0 1.677-.352 2.244-.947.595-.568.947-1.38.947-2.245 0-.892-.379-1.676-.947-2.271a3.215 3.215 0 00-2.244-.947zm16.18 15.767H79.85V3.164h-5.19V0h13.549v3.164h-5.192v15.767z" fill="#F52D3A"/><path d="M110.784 7.356v.027a5.82 5.82 0 013.543 1.677 5.743 5.743 0 011.704 4.084 5.806 5.806 0 01-1.704 4.11 5.834 5.834 0 01-4.084 1.677h-5.733a5.9 5.9 0 01-4.111-1.677 5.9 5.9 0 01-1.676-4.11h3.137c0 .73.297 1.379.784 1.866a2.617 2.617 0 001.866.784h5.733c.704 0 1.38-.298 1.839-.784a2.616 2.616 0 00.785-1.866c0-.704-.298-1.38-.785-1.84a2.551 2.551 0 00-1.839-.784h-6.274a5.21 5.21 0 01-3.705-1.541 5.146 5.146 0 01-1.541-3.705c0-1.46.567-2.759 1.541-3.705A5.125 5.125 0 01103.969 0h6.815c1.434 0 2.759.595 3.705 1.569a5.208 5.208 0 011.542 3.705h-3.164c0-.568-.244-1.11-.622-1.488a2.069 2.069 0 00-1.461-.622h-6.815a2.128 2.128 0 00-2.109 2.11c0 .568.243 1.081.622 1.487.378.379.919.595 1.487.595h6.815zm12.917 11.575v-7.086L116.156.027l.027-.027h3.678l5.409 8.492L130.706 0h3.651l.054.027-7.546 11.818v7.086h-3.164zm22.896-11.575v.027a5.826 5.826 0 013.543 1.677 5.743 5.743 0 011.704 4.084 5.806 5.806 0 01-1.704 4.11 5.834 5.834 0 01-4.084 1.677h-5.733a5.9 5.9 0 01-4.111-1.677 5.898 5.898 0 01-1.677-4.11h3.137c0 .73.298 1.379.785 1.866a2.615 2.615 0 001.866.784h5.733c.703 0 1.379-.298 1.839-.784a2.615 2.615 0 00.784-1.866c0-.704-.297-1.38-.784-1.84a2.555 2.555 0 00-1.839-.784h-6.274a5.207 5.207 0 01-3.705-1.541 5.145 5.145 0 01-1.542-3.705c0-1.46.568-2.759 1.542-3.705A5.122 5.122 0 01139.782 0h6.815a5.17 5.17 0 013.705 1.569 5.208 5.208 0 011.542 3.705h-3.165c0-.568-.243-1.11-.622-1.488a2.065 2.065 0 00-1.46-.622h-6.815c-.568 0-1.109.244-1.488.622-.378.379-.622.92-.622 1.488s.244 1.081.622 1.487c.379.379.92.595 1.488.595h6.815zm15.228 11.575h-3.165V3.164h-5.192V0h13.549v3.164h-5.192v15.767zm20.005-3.137v3.137h-12.603V0h12.603v3.164l-1.217 2.786h-3.435l1.217-2.786h-6.031v6.031h5.977v3.164h-5.977v3.435h9.466zM197.592 0H201v18.931h-3.164V5.787l-3.949 6.735h-2.731l-3.976-6.735v13.144h-3.137V0h3.408l5.057 8.627L197.592 0z" fill="#fff"/></g><defs><clipPath id="clip0_1_34"><path fill="#fff" d="M0 0h201v19H0z"/></clipPath></defs></svg>