<svg width="32" height="32" fill="none" xmlns="http://www.w3.org/2000/svg"><path d="M16.667 4H10.4c-2.24 0-3.36 0-4.216.436a4 4 0 00-1.748 1.748C4 7.04 4 8.16 4 10.4v7.2c0 2.24 0 3.36.436 4.216a4 4 0 001.748 1.748c.328.167.695.27 1.148.334.515.072.772.108.915.156.6.204.94.596 1.058 1.218.028.148.028.342.028.73 0 .637 0 .955.06 1.169a1.6 1.6 0 001.947 1.112c.215-.056.489-.218 1.037-.54l4.846-2.857c.56-.33.84-.494 1.138-.611.265-.103.54-.178.82-.224.317-.05.642-.05 1.291-.05H21.6c2.24 0 3.36 0 4.216-.437a4 4 0 001.748-1.748C28 20.961 28 19.84 28 17.6v-2.266m-18 1.434h4.667M10 12.101h8.667m10.666-5.434a4 4 0 11-8 0 4 4 0 018 0z" stroke="#fff" stroke-width="2" stroke-linecap="round" stroke-linejoin="round"/></svg>