<svg width="23" height="18" fill="none" xmlns="http://www.w3.org/2000/svg"><g clip-path="url(#clip0_1_102)"><path d="M6.89 3.78c-.342-1.14-1.273-1.016-1.909-.484-1.567 1.423-3.608 4.405-2.3 8.7 1.092 3.64 5.642 5.965 5.642 5.965H3.02S.28 14.947.036 11.4c-.313-4.482 1.517-7.31 3.637-9.152C5.663.515 7.558 0 7.558 0l3.874 12.459L15.302 0s1.894.515 3.885 2.248c2.12 1.843 3.95 4.67 3.64 9.152-.244 3.543-2.982 6.561-2.982 6.561H14.54s4.55-2.326 5.643-5.964c1.304-4.296-.734-7.278-2.3-8.7-.637-.53-1.567-.657-1.909.483l-4.542 14.065L6.889 3.78z" fill="#027FFF"/></g><defs><clipPath id="clip0_1_102"><path fill="#fff" d="M0 0h23v18H0z"/></clipPath></defs></svg>