<svg width="24" height="33" fill="none" xmlns="http://www.w3.org/2000/svg"><g clip-path="url(#clip0_1_573)"><path fill-rule="evenodd" clip-rule="evenodd" d="M11.363 24.988c.73.005 1.277.55 1.273 1.252-.004.7-.552 1.232-1.287 1.241-.405.004-.81.001-1.215.001-.415 0-.83.006-1.245-.002-.706-.016-1.246-.566-1.242-1.255.003-.687.545-1.23 1.256-1.237.82-.008 1.64-.007 2.46 0zM10.134 8.015c-.415 0-.83.007-1.245-.001-.706-.015-1.246-.565-1.242-1.254.003-.688.545-1.23 1.256-1.239.82-.007 1.64-.005 2.46 0 .73.006 1.277.551 1.273 1.255-.004.698-.552 1.23-1.288 1.24-.404.003-.809 0-1.214 0zm2.893 8.108c-.465.491-.95.96-1.429 1.437-.742.743-1.482 1.486-2.226 2.226-.62.616-1.33.62-1.945.008-.803-.799-1.607-1.597-2.4-2.404-.398-.406-.48-.923-.26-1.407.215-.469.69-.758 1.204-.727.35.022.632.18.875.423.504.511 1.012 1.016 1.548 1.554l2.317-2.319c.184-.185.363-.372.553-.549.517-.479 1.255-.478 1.743-.005.495.481.514 1.242.02 1.763zm9.537 6.615c-2.465.004-4.929.004-7.393 0-.748 0-1.284-.53-1.283-1.275.002-.85-.08-1.709.178-2.54.633-2.023 1.992-3.229 4.077-3.613.058-.01.115-.027.2-.048-.387-.136-.759-.224-1.089-.393-1.393-.715-2.138-1.87-2.108-3.436.03-1.555.821-2.667 2.218-3.338.2-.096.274-.186.27-.407-.015-.706 0-1.415-.006-2.12-.012-1.459-1.09-2.539-2.55-2.54-3.297-.007-6.593-.007-9.889-.001-1.44.003-2.53 1.088-2.532 2.525-.005 7.301-.005 14.598 0 21.897.001 1.437 1.092 2.523 2.533 2.527 3.306.005 6.612.006 9.92 0 1.42-.004 2.5-1.092 2.518-2.513.004-.34-.008-.685.004-1.028a1.245 1.245 0 011.173-1.198c.652-.033 1.262.436 1.301 1.09.053.91.087 1.831-.234 2.712-.689 1.89-2.022 3.021-4.005 3.377-.059.011-.115.038-.173.056H4.588c-.056-.018-.112-.047-.17-.056-2.42-.359-4.252-2.434-4.255-4.876-.01-7.359-.009-14.719 0-22.08C.165 3.197 1.76 1.208 3.957.672c.21-.053.421-.095.631-.143h11.106c.476.138.978.22 1.421.425 1.935.9 2.938 2.436 3.005 4.568.024.737.008 1.477.001 2.216-.002.161.034.253.2.327 1.55.696 2.452 2.201 2.286 3.792-.175 1.681-1.36 2.972-3.065 3.335-.036.008-.072.02-.203.058.26.052.427.084.593.12a4.988 4.988 0 013.934 4.798 54.7 54.7 0 010 1.281c-.009.764-.533 1.29-1.302 1.29zm-2.44-11.224a1.25 1.25 0 00-1.244-1.25 1.25 1.25 0 00-1.25 1.241 1.252 1.252 0 001.242 1.252 1.254 1.254 0 001.251-1.243zm-1.453 6.242c-1.286.103-2.43 1.357-2.248 2.477h4.936c.02-1.436-1.25-2.592-2.688-2.477z" fill="#027FFF"/></g><defs><clipPath id="clip0_1_573"><path fill="#fff" d="M0 0h24v33H0z"/></clipPath></defs></svg>