<svg width="13" height="20" fill="none" xmlns="http://www.w3.org/2000/svg"><g clip-path="url(#clip0_1_730)" fill="#939393"><path d="M9.18 19.99H3.595c-.035-.01-.075-.029-.11-.034-1.97-.254-3.475-1.883-3.48-3.814C0 12.044 0 7.946.005 3.849.01 2.219 1.1.75 2.675.229c.3-.097.615-.151.92-.229H9.18c.035.01.075.03.11.034 1.655.215 2.98 1.38 3.37 2.97.04.172.075.342.11.508v12.961c-.01.034-.03.073-.035.108-.24 1.507-1.085 2.56-2.525 3.136-.325.132-.685.18-1.03.268v.005zm1.995-9.975v-6.03c0-1.405-1.04-2.424-2.48-2.424H4.09c-1.45 0-2.49 1.015-2.49 2.43v12.004c0 1.42 1.04 2.434 2.485 2.434H8.67c1.465 0 2.5-1.01 2.5-2.439v-5.97l.005-.005z"/><path d="M6.395 3.122h.775c.465.004.815.346.81.79 0 .43-.35.766-.805.77a82.69 82.69 0 01-1.575 0c-.465 0-.815-.35-.81-.79 0-.429.35-.766.805-.77h.8zM6.39 16.868h-.775c-.47-.005-.82-.336-.825-.775 0-.44.35-.78.815-.786.525 0 1.05-.005 1.575 0 .455 0 .8.342.805.776 0 .43-.345.776-.795.785-.265.005-.53 0-.795 0H6.39z"/></g><defs><clipPath id="clip0_1_730"><path fill="#fff" d="M0 0h13v20H0z"/></clipPath></defs></svg>