<svg width="20" height="20" fill="none" xmlns="http://www.w3.org/2000/svg"><g clip-path="url(#clip0_1_734)"><path fill-rule="evenodd" clip-rule="evenodd" d="M16.702 2.856A9.663 9.663 0 009.814 0C4.45 0 .084 4.367.084 9.735A9.72 9.72 0 001.381 14.6L0 19.646l5.158-1.353a9.711 9.711 0 004.651 1.186c5.363 0 9.73-4.367 9.735-9.735a9.69 9.69 0 00-2.846-6.888h.004zM9.82 17.833a8.088 8.088 0 01-4.117-1.126l-.293-.177-3.06.805.818-2.986-.19-.307A8.084 8.084 0 011.74 9.735c0-4.46 3.632-8.088 8.093-8.088 2.162 0 4.19.841 5.72 2.372a8.038 8.038 0 012.368 5.725c0 4.46-3.633 8.093-8.093 8.093l-.01-.004zm4.437-6.06c-.242-.122-1.437-.713-1.66-.792-.224-.079-.387-.12-.55.121-.162.242-.627.791-.772.954-.144.163-.283.181-.525.06-.242-.12-1.028-.377-1.958-1.209-.721-.646-1.21-1.442-1.354-1.684-.14-.242 0-.363.107-.497.265-.326.526-.67.61-.833.079-.163.041-.302-.02-.428-.06-.12-.548-1.32-.748-1.805-.195-.474-.4-.409-.549-.418-.14-.01-.302-.01-.465-.01a.885.885 0 00-.646.303c-.224.242-.852.832-.852 2.028 0 1.195.87 2.353.996 2.516.125.163 1.716 2.619 4.153 3.675.582.25 1.033.4 1.386.511.582.186 1.112.158 1.53.098.466-.07 1.438-.59 1.642-1.158.205-.568.205-1.056.14-1.159-.06-.102-.223-.162-.465-.283v.01z" fill="#939393"/></g><defs><clipPath id="clip0_1_734"><path fill="#fff" d="M0 0h20v20H0z"/></clipPath></defs></svg>