<svg width="398" height="55" fill="none" xmlns="http://www.w3.org/2000/svg"><path d="M79.663 45.76h7.4V3.42h-10.78c-10.84 0-16.52 5.536-16.52 13.704 0 6.516 3.111 10.36 8.695 14.319l-9.68 14.318h8.018l10.78-16.029-3.728-2.498c-4.54-3.037-6.743-5.42-6.743-10.533 0-4.516 3.188-7.553 9.254-7.553h3.304v36.613zm142.869.597c3.381 0 5.758-.596 7.535-1.884v-5.9c-1.835 1.268-4.038 2.056-7.09 2.056-5.217 0-7.361-4.017-7.361-10.34 0-6.65 2.647-10.051 7.419-10.051 2.82 0 5.564.96 7.032 1.883v-6.15c-1.526-.865-4.212-1.46-7.824-1.46-9.313 0-14.162 6.63-14.162 15.951 0 10.244 4.714 15.895 14.451 15.895zm-45.556-2.672v-5.92c-2.26 1.538-6.066 2.864-9.621 2.864-5.332 0-7.341-2.479-7.65-7.61h17.581v-3.825c0-10.667-4.714-14.684-12.017-14.684-8.868 0-13.099 6.746-13.099 16.01 0 10.667 5.274 15.837 14.586 15.837 4.637 0 8.076-1.211 10.22-2.672zm23.281 2.076h8.249l-11.688-16.279 10.297-14.376h-7.361l-10.278 14.376V15.106h-7.303v30.655h7.303V30.943l10.781 14.818zm-49.864-5.728h-3.246V15.106h-21.252v2.633c0 7.476-.483 17.163-3.052 22.294h-2.28v12.724h6.742V45.76h16.345v6.996h6.743V40.033zm-40.166-24.927v12.127h-9.737V15.106h-7.303v30.655h7.303v-12.8h9.737v12.8h7.283V15.106h-7.283zm54.926 5.132c3.613 0 4.714 2.979 4.714 6.823v.595h-10.162c.193-4.862 1.951-7.418 5.448-7.418zm-25.29 19.795h-10.297c2.028-4.631 2.589-12.973 2.589-18.277v-.922h7.708v19.2zm128.244 5.728h8.636l-15.127-22.237 13.717-20.103h-7.535l-13.176 19.488V3.421h-7.399v42.34h7.399V25.888l13.485 19.873zm33.501-20.91c0-7.42-3.806-10.225-11.515-10.225-4.83 0-8.636 1.518-10.838 2.806v6.035c1.951-1.48 6.24-3.056 9.988-3.056 3.478 0 5.081 1.21 5.081 4.516v1.692h-1.178c-11.148 0-16.093 3.67-16.093 9.878s3.786 9.687 9.428 9.687c4.289 0 6.124-1.403 7.534-2.864h.309c.058.788.309 1.826.541 2.44h7.11a74.927 74.927 0 01-.367-7.495V24.85zm-7.284 13.587c-.927 1.346-2.646 2.441-5.216 2.441-3.052 0-4.598-1.71-4.598-4.324 0-3.479 2.511-4.747 8.771-4.747h1.043v6.63zm19.9-23.332h-6.743v39.477h7.284V42.166c1.854 2.729 4.54 4.19 7.67 4.19 7.09 0 11.997-5.65 11.997-15.952 0-10.244-4.772-15.895-11.63-15.895-3.439 0-6.26 1.576-8.211 4.555l-.367-3.959zm6.375 25.523c-3.864 0-5.834-3.094-5.834-10.167 0-7.13 2.086-10.224 6.201-10.224 3.98 0 5.931 3.094 5.931 10.167 0 7.13-2.086 10.224-6.298 10.224zm39.49-19.795v-5.728h-24.44v5.728h8.578V45.76h7.284V20.833h8.578zm4.289-5.728v30.655h11.089c7.168 0 12.249-3.652 12.249-10.859 0-6.823-4.54-10.417-12.133-10.417h-3.922v-9.379h-7.283zm26.023 0v30.655h7.303V15.106h-7.303zm-15.359 24.927h-3.381v-9.82h3.555c3.13 0 4.965 1.402 4.965 4.939 0 3.536-2.028 4.881-5.139 4.881z" fill="#000"/><path d="M21.917.124C9.95.124.25 9.774.25 21.678c0 5.95 2.424 11.338 6.343 15.238 3.921 3.902 13.159 9.55 13.7 15.477.081.888.728 1.616 1.625 1.616s1.544-.728 1.625-1.616c.542-5.928 9.78-11.575 13.7-15.477 3.92-3.9 6.344-9.288 6.344-15.238C43.586 9.774 33.885.124 21.917.124z" fill="#F43"/><path d="M21.917 29.224c4.189 0 7.584-3.378 7.584-7.544 0-4.167-3.395-7.544-7.584-7.544-4.188 0-7.584 3.377-7.584 7.544 0 4.166 3.396 7.544 7.584 7.544z" fill="#fff"/></svg>