<svg width="95" height="44" fill="none" xmlns="http://www.w3.org/2000/svg"><g clip-path="url(#clip0_1_90)"><path d="M35.073 18.145h2.92V1.072h-4.255c-4.278 0-6.52 2.232-6.52 5.526 0 2.627 1.228 4.177 3.432 5.774l-3.82 5.773h3.164l4.255-6.463-1.472-1.008c-1.792-1.224-2.661-2.185-2.661-4.246 0-1.822 1.258-3.046 3.653-3.046h1.304v14.763zm56.392.24c1.334 0 2.272-.24 2.974-.759v-2.379c-.724.511-1.594.83-2.799.83-2.058 0-2.905-1.62-2.905-4.17 0-2.682 1.045-4.053 2.928-4.053 1.114 0 2.197.387 2.776.759v-2.48c-.602-.349-1.662-.589-3.088-.589-3.676 0-5.59 2.674-5.59 6.433 0 4.13 1.86 6.409 5.704 6.409zm-17.981-1.077v-2.386c-.893.62-2.395 1.154-3.798 1.154-2.105 0-2.898-1-3.02-3.069h6.94v-1.542c0-4.301-1.861-5.921-4.744-5.921-3.5 0-5.17 2.72-5.17 6.456 0 4.301 2.082 6.386 5.758 6.386 1.83 0 3.187-.488 4.034-1.078zm9.189.837h3.256l-4.614-6.564 4.065-5.797h-2.906l-4.057 5.797V5.784h-2.882v12.361h2.882V12.17l4.255 5.975zM62.99 15.836h-1.28V5.784h-8.39v1.062c0 3.015-.19 6.92-1.205 8.99h-.9v5.13h2.662v-2.82h6.451v2.82h2.661v-5.13zM47.137 5.784v4.89h-3.844v-4.89h-2.882v12.361h2.882v-5.161h3.844v5.161h2.874V5.785h-2.874zm21.68 2.07c1.426 0 1.86 1.2 1.86 2.75v.241h-4.01c.075-1.96.77-2.991 2.15-2.991zm-9.982 7.982H54.77c.8-1.868 1.022-5.231 1.022-7.37v-.372h3.042v7.742zm-23.35 24.606h3.408l-5.97-8.967 5.413-8.106h-2.974l-5.2 7.858V23.37h-2.92v17.073h2.92v-8.014l5.322 8.014zm13.223-8.432c0-2.992-1.503-4.123-4.545-4.123-1.907 0-3.41.612-4.278 1.131v2.434c.77-.597 2.463-1.232 3.942-1.232 1.373 0 2.006.488 2.006 1.82v.683h-.466c-4.4 0-6.352 1.48-6.352 3.983 0 2.504 1.495 3.906 3.722 3.906 1.692 0 2.417-.565 2.974-1.154h.122c.023.317.122.736.213.984h2.806a30.853 30.853 0 01-.144-3.023v-5.41zm-2.875 5.48c-.366.542-1.045.983-2.06.983-1.204 0-1.814-.69-1.814-1.743 0-1.403.991-1.915 3.462-1.915h.412v2.674zm7.854-9.41h-2.661V44H53.9v-5.007c.732 1.1 1.792 1.69 3.027 1.69 2.799 0 4.736-2.28 4.736-6.433 0-4.131-1.884-6.41-4.591-6.41-1.357 0-2.47.636-3.241 1.837l-.145-1.596zm2.517 10.293c-1.526 0-2.303-1.248-2.303-4.1 0-2.875.823-4.123 2.447-4.123 1.571 0 2.342 1.248 2.342 4.1 0 2.875-.824 4.123-2.486 4.123zM71.79 30.39v-2.31h-9.647v2.31h3.386v10.052h2.875V30.39h3.386zm1.693-2.31v12.362h4.377c2.829 0 4.834-1.473 4.834-4.379 0-2.751-1.792-4.2-4.788-4.2h-1.549V28.08h-2.874zm10.271 0v12.362h2.883V28.08h-2.883zm-6.062 10.052h-1.335v-3.96h1.404c1.235 0 1.96.566 1.96 1.992 0 1.426-.801 1.968-2.03 1.968z" fill="#fff"/><path d="M8.5 1.063a6.375 6.375 0 00-4.509 10.881c1.154 1.154 3.871 2.825 4.03 4.578.025.263.215.478.479.478s.454-.215.478-.478c.16-1.753 2.877-3.423 4.03-4.578A6.375 6.375 0 008.5 1.062z" fill="#F43"/><path d="M8.5 9.67a2.231 2.231 0 100-4.463 2.231 2.231 0 000 4.463z" fill="#fff"/></g><defs><clipPath id="clip0_1_90"><path fill="#fff" d="M0 0h95v44H0z"/></clipPath></defs></svg>