<svg width="139" height="70" fill="none" xmlns="http://www.w3.org/2000/svg"><g clip-path="url(#clip0_1_260)"><path fill-rule="evenodd" clip-rule="evenodd" d="M125.701 33.118l-.376.076.151.15.225.301.451.301.15-.376-.225-.226-.376-.226zm1.728-.526l-.601-.076.075.301v.678l.376.828.451-.602-.075-.603-.226-.526zm.301-1.732l-1.278-.3-.3 1.053.751.226.601-.377.226-.602zm-9.392-15.354l-.451-.076.15-.15.151-.377.45-.376.151.376-.226.301-.225.302zm1.803.3l-.601.151.075-.376v-.753l.376-.978.526.602-.075.677-.301.678zm.376 1.958l.15.376-.451.226-.977-.15-.375-1.205.751-.376.676.376.226.753zm8.265 27.548l-.977.15-1.728.979-.752.677-.375.603.526.903.526-.602 1.502-1.13c0 .151 1.278-1.58 1.278-1.58zm-4.584 4.14l-.375-1.054-1.728.978.15.678 1.277-.15.676-.452zm-12.322-47.72c-10.744-2.635-21.488.075-29.603 6.322 2.705-1.58 5.56-2.71 8.565-3.538 1.052.301 1.954.828 2.93 1.054l.902.15.827-1.204 1.352-.3h1.879l2.479-.452 3.456.602 2.705-.15c.15.075.301.075.451.075.376.075.751.225 1.127.3v.076c.075 0 .15.075.225.075.151 0 .301.075.451.075.075 0 .226.076.301.076.15 0 .3.075.375.15.076 0 .226.075.301.075.15.076.3.076.376.151.075 0 .225.075.3.075.075 0 .15.076.226.076-.677-.226-1.428-.527-2.179-.678l.225.15.376.452 2.329 1.43 2.029.904 2.479.225c.301.151.526.301.827.527l.3.602 2.78 2.41 1.803 2.934.301 2.033-1.052-.903v-.753l-.902-.452-.15 2.033.827 1.957.976.526-2.329.302.301 1.128-1.052.527.225-1.129-1.127-1.053-.977-.151.677-1.43-.902-.753-.225.979-.902-.678.225-1.881-1.577-.15-1.879.752.676.978c.376.377.677.753.977 1.054l.827-.15 1.502.903-.601 1.204.601 1.129c.301.452.601.903.827 1.43l.676-.903 1.578.753.977.828-.451 1.204 1.502-.226.376-1.054 1.578.753.902 2.333-1.503 2.71.376 1.882-2.405-3.613-.976-1.882-1.278-.451.15 1.053a21.37 21.37 0 011.353 8.054l.451 2.409.751.602.301.978 1.653.075.826 1.732 1.052 1.355h1.428l.3 3.311 1.127-.075.751-2.86 2.63-1.28.752 1.656-.226 2.409-1.953 1.204-.677 2.56-1.803 1.43-.601 2.784-2.705 1.28-1.052-.678-4.057 1.581-1.803.075v2.56l-3.381 2.408.526-.753-2.179 2.334-.977-.076-2.63 1.355-1.578-.752-1.577 3.311-.526 1.43 1.502 1.054.301 1.28-2.104.903 2.855 1.13a30.863 30.863 0 007.288-2.485l.752-2.183 2.705-1.58.225-1.957.977-1.43 3.456-.753 2.705-2.785-.376-2.71 3.006-2.483.601-2.033 1.127-.752 1.502-2.56 2.48-2.935c-.15 1.129-.376 2.258-.601 3.387a34.651 34.651 0 01-14.051 20.774 35.25 35.25 0 0018.183-23.258c4.583-18.666-7.213-37.935-26.072-42.527z" fill="#B6B4B7"/><path d="M86.255 42.753L70.552 55.398h-5.635c-1.202 0-1.428-.677-.376-1.505l19.91-16.108-5.334-14.978c-.3-.828.15-1.506.977-1.506h2.48L94.67 55.398h-2.48c-.826 0-1.802-.677-2.103-1.505l-3.832-11.14zm.301-21.452H84.15l12.097 34.097h2.404c.827 0 1.278-.677.977-1.505l-6.086-17.086 17.356-14c.977-.828.827-1.506-.375-1.506h-5.635L91.815 31.914l-3.23-9.032c-.301-.903-1.203-1.58-2.03-1.58zm-71.604 0h1.803l-13.9 34.097H1.052c-.827 0-1.277-.677-.902-1.505l12.623-31.011c.376-.903 1.352-1.58 2.179-1.58zm34.186 0c-.826 0-1.803.678-2.178 1.506l-12.623 30.86-2.855-21.602 13.073-9.334c1.127-.828 1.052-1.505-.15-1.505H38.77L14.35 38.84l6.538-15.957c.375-.828-.076-1.505-.902-1.505h-1.803L4.208 55.398H6.01c.826 0 1.803-.677 2.179-1.505l2.93-7.15 12.172-8.732 2.104 15.731c.15 1.204.901 1.58 1.578 1.58h10.068l13.9-34.096-1.804.075z" fill="#B72B2B"/><path d="M56.652 49.377c-4.057 1.354-8.566.903-12.848.903l9.918-24.237h8.715c4.358.377 7.138 2.409 7.213 7.301-.6 7.452-5.56 13.398-12.998 16.032zM62.437 21.3H52.294l-13.9 34.097h9.843c11.12-.075 23.217-5.043 28.326-15.806 4.358-9.108 1.352-18.818-14.126-18.29z" fill="#B72B2B"/></g><defs><clipPath id="clip0_1_260"><path fill="#fff" d="M0 0h139v70H0z"/></clipPath></defs></svg>