<svg width="46" height="46" fill="none" xmlns="http://www.w3.org/2000/svg"><rect width="46" height="46" rx="23" fill="#25D366"/><g clip-path="url(#clip0_1_104)"><path fill-rule="evenodd" clip-rule="evenodd" d="M29.702 15.856A9.663 9.663 0 0022.814 13c-5.363 0-9.73 4.367-9.73 9.735a9.72 9.72 0 001.297 4.865L13 32.647l5.158-1.354a9.712 9.712 0 004.651 1.186c5.363 0 9.73-4.367 9.735-9.735a9.69 9.69 0 00-2.846-6.888h.004zM22.82 30.833a8.088 8.088 0 01-4.117-1.126l-.293-.177-3.06.805.818-2.986-.19-.307a8.084 8.084 0 01-1.238-4.307c0-4.46 3.633-8.088 8.094-8.088 2.162 0 4.19.841 5.72 2.372a8.038 8.038 0 012.368 5.725c0 4.46-3.633 8.093-8.093 8.093l-.01-.004zm4.437-6.06c-.242-.122-1.437-.712-1.66-.792-.224-.079-.387-.12-.55.121-.162.242-.627.791-.772.954-.144.163-.283.181-.525.06-.242-.12-1.028-.377-1.958-1.209-.721-.646-1.21-1.442-1.354-1.684-.14-.242 0-.363.107-.497.265-.326.526-.67.61-.833.079-.163.041-.302-.02-.428-.06-.12-.548-1.32-.748-1.805-.195-.474-.4-.409-.549-.418-.14-.01-.302-.01-.465-.01a.885.885 0 00-.646.303c-.224.242-.852.832-.852 2.028 0 1.195.87 2.353.996 2.516.125.163 1.716 2.619 4.153 3.674.582.252 1.033.4 1.386.512.582.186 1.112.158 1.53.098.466-.07 1.438-.59 1.642-1.158.205-.568.205-1.056.14-1.158-.06-.103-.223-.163-.465-.284v.01z" fill="#fff"/></g><defs><clipPath id="clip0_1_104"><path fill="#fff" transform="translate(13 13)" d="M0 0h20v20H0z"/></clipPath></defs></svg>